--40000LOG 11:51:38:242781500 Waiting for file /home/seluser/videos/vid_chrome_or_firefox_40000* to be created...
Won't start video recording due to VIDEO env var false
ffmpeg version 2.8.15-0ubuntu0.16.04.1 Copyright (c) 2000-2018 the FFmpeg developers
  built with gcc 5.4.0 (Ubuntu 5.4.0-6ubuntu1~16.04.10) 20160609
  configuration: --prefix=/usr --extra-version=0ubuntu0.16.04.1 --build-suffix=-ffmpeg --toolchain=hardened --libdir=/usr/lib/x86_64-linux-gnu --incdir=/usr/include/x86_64-linux-gnu --cc=cc --cxx=g++ --enable-gpl --enable-shared --disable-stripping --disable-decoder=libopenjpeg --disable-decoder=libschroedinger --enable-avresample --enable-avisynth --enable-gnutls --enable-ladspa --enable-libass --enable-libbluray --enable-libbs2b --enable-libcaca --enable-libcdio --enable-libflite --enable-libfontconfig --enable-libfreetype --enable-libfribidi --enable-libgme --enable-libgsm --enable-libmodplug --enable-libmp3lame --enable-libopenjpeg --enable-libopus --enable-libpulse --enable-librtmp --enable-libschroedinger --enable-libshine --enable-libsnappy --enable-libsoxr --enable-libspeex --enable-libssh --enable-libtheora --enable-libtwolame --enable-libvorbis --enable-libvpx --enable-libwavpack --enable-libwebp --enable-libx265 --enable-libxvid --enable-libzvbi --enable-openal --enable-opengl --enable-x11grab --enable-libdc1394 --enable-libiec61883 --enable-libzmq --enable-frei0r --enable-libx264 --enable-libopencv
  libavutil      54. 31.100 / 54. 31.100
  libavcodec     56. 60.100 / 56. 60.100
  libavformat    56. 40.101 / 56. 40.101
  libavdevice    56.  4.100 / 56.  4.100
  libavfilter     5. 40.101 /  5. 40.101
  libavresample   2.  1.  0 /  2.  1.  0
  libswscale      3.  1.101 /  3.  1.101
  libswresample   1.  2.101 /  1.  2.101
  libpostproc    53.  3.100 / 53.  3.100
Input #0, x11grab, from ':27.0':
  Duration: N/A, start: 1556013098.517617, bitrate: N/A
    Stream #0:0: Video: rawvideo (BGR[0] / 0x524742), bgr0, 1920x1080, 29.97 fps, 29.97 tbr, 1000k tbn, 29.97 tbc
[libx264 @ 0x1831160] using cpu capabilities: MMX2 SSE2Fast SSSE3 SSE4.2 AVX FMA3 AVX2 LZCNT BMI2
[libx264 @ 0x1831160] profile Constrained Baseline, level 4.0
[libx264 @ 0x1831160] 264 - core 148 r2643 5c65704 - H.264/MPEG-4 AVC codec - Copyleft 2003-2015 - http://www.videolan.org/x264.html - options: cabac=0 ref=1 deblock=0:0:0 analyse=0:0 me=dia subme=0 psy=1 psy_rd=1.00:0.00 mixed_ref=0 me_range=16 chroma_me=1 trellis=0 8x8dct=0 cqm=0 deadzone=21,11 fast_pskip=1 chroma_qp_offset=0 threads=3 lookahead_threads=1 sliced_threads=0 nr=0 decimate=1 interlaced=0 bluray_compat=0 constrained_intra=0 bframes=0 weightp=0 keyint=250 keyint_min=10 scenecut=0 intra_refresh=0 rc=crf mbtree=0 crf=23.0 qcomp=0.60 qpmin=0 qpmax=69 qpstep=4 ip_ratio=1.40 aq=0
Output #0, matroska, to '/home/seluser/videos/vid_chrome_or_firefox_40000.mkv':
  Metadata:
    encoder         : Lavf56.40.101
    Stream #0:0: Video: h264 (libx264) (H264 / 0x34363248), yuv420p, 1920x1080, q=-1--1, 10 fps, 1k tbn, 10 tbc
    Metadata:
      encoder         : Lavc56.60.100 libx264
Stream mapping:
  Stream #0:0 -> #0:0 (rawvideo (native) -> h264 (libx264))
Press [q] to stop, [?] for help
frame=    4 fps=0.0 q=0.0 size=       1kB time=00:00:00.00 bitrate=N/A    
frame=    6 fps=3.9 q=9.0 size=      48kB time=00:00:00.40 bitrate= 977.3kbits/s    
frame=    8 fps=3.7 q=7.0 size=      77kB time=00:00:01.10 bitrate= 570.4kbits/s    
frame=   10 fps=3.7 q=8.0 size=      87kB time=00:00:01.80 bitrate= 397.5kbits/s    
frame=   14 fps=4.3 q=8.0 size=      91kB time=00:00:03.00 bitrate= 248.5kbits/s    
frame=   17 fps=4.5 q=8.0 size=      91kB time=00:00:03.40 bitrate= 219.8kbits/s    
frame=   22 fps=5.0 q=9.0 size=      92kB time=00:00:04.20 bitrate= 178.5kbits/s dup=0 drop=3    
frame=   26 fps=5.2 q=9.0 size=      92kB time=00:00:04.70 bitrate= 160.0kbits/s dup=0 drop=3    
frame=   29 fps=5.0 q=8.0 size=      92kB time=00:00:05.10 bitrate= 147.6kbits/s dup=0 drop=3    
frame=   32 fps=4.9 q=6.0 size=      92kB time=00:00:05.60 bitrate= 134.8kbits/s dup=0 drop=3    
frame=   36 fps=5.1 q=9.0 size=      93kB time=00:00:06.80 bitrate= 112.5kbits/s dup=0 drop=3    
frame=   40 fps=5.3 q=8.0 size=      93kB time=00:00:07.30 bitrate= 104.9kbits/s dup=0 drop=3    
frame=   44 fps=5.4 q=8.0 size=      94kB time=00:00:07.80 bitrate=  98.5kbits/s dup=0 drop=3    
frame=   49 fps=5.6 q=9.0 size=      94kB time=00:00:08.60 bitrate=  89.5kbits/s dup=0 drop=5    
frame=   55 fps=5.9 q=10.0 size=     105kB time=00:00:09.20 bitrate=  93.1kbits/s dup=0 drop=7    
frame=   60 fps=6.1 q=9.0 size=     105kB time=00:00:09.70 bitrate=  88.6kbits/s dup=0 drop=10    
frame=   65 fps=6.3 q=9.0 size=     105kB time=00:00:10.20 bitrate=  84.4kbits/s dup=0 drop=14    
frame=   70 fps=6.4 q=10.0 size=     112kB time=00:00:10.70 bitrate=  85.4kbits/s dup=0 drop=15    
frame=   75 fps=6.6 q=9.0 size=     112kB time=00:00:11.30 bitrate=  81.3kbits/s dup=0 drop=18    
frame=   81 fps=6.8 q=9.0 size=     112kB time=00:00:11.90 bitrate=  77.4kbits/s dup=0 drop=26    
frame=   86 fps=6.9 q=9.0 size=     113kB time=00:00:12.40 bitrate=  74.8kbits/s dup=0 drop=29    
frame=   92 fps=7.1 q=10.0 size=     114kB time=00:00:13.00 bitrate=  71.5kbits/s dup=0 drop=34    
frame=   97 fps=7.1 q=9.0 size=     120kB time=00:00:13.50 bitrate=  72.9kbits/s dup=0 drop=37    
frame=  102 fps=7.2 q=9.0 size=     120kB time=00:00:14.00 bitrate=  70.5kbits/s dup=0 drop=38    
frame=  106 fps=7.3 q=10.0 size=     121kB time=00:00:14.40 bitrate=  68.6kbits/s dup=0 drop=38    
frame=  110 fps=7.3 q=9.0 size=     126kB time=00:00:14.90 bitrate=  69.1kbits/s dup=0 drop=38    
frame=  115 fps=7.3 q=9.0 size=     127kB time=00:00:15.50 bitrate=  66.9kbits/s dup=0 drop=38    
frame=  119 fps=7.3 q=8.0 size=     128kB time=00:00:15.90 bitrate=  65.7kbits/s dup=0 drop=38    
frame=  122 fps=7.3 q=8.0 size=     128kB time=00:00:16.40 bitrate=  64.1kbits/s dup=0 drop=38    
frame=  125 fps=7.1 q=8.0 size=     129kB time=00:00:16.90 bitrate=  62.4kbits/s dup=0 drop=38    
frame=  127 fps=7.0 q=8.0 size=     129kB time=00:00:17.30 bitrate=  61.1kbits/s dup=0 drop=38    
frame=  131 fps=7.0 q=9.0 size=     129kB time=00:00:18.40 bitrate=  57.6kbits/s dup=0 drop=38    
frame=  137 fps=7.1 q=9.0 size=     130kB time=00:00:19.30 bitrate=  55.1kbits/s dup=0 drop=39    
frame=  140 fps=7.0 q=9.0 size=     130kB time=00:00:19.60 bitrate=  54.5kbits/s dup=0 drop=39    
frame=  144 fps=7.0 q=9.0 size=     131kB time=00:00:20.20 bitrate=  53.1kbits/s dup=0 drop=39    
frame=  148 fps=7.0 q=9.0 size=     131kB time=00:00:20.70 bitrate=  51.9kbits/s dup=0 drop=39    
frame=  150 fps=7.0 q=16.0 size=     131kB time=00:00:21.10 bitrate=  51.0kbits/s dup=0 drop=39    
frame=  156 fps=7.1 q=10.0 size=     180kB time=00:00:22.00 bitrate=  67.1kbits/s dup=0 drop=43    
frame=  161 fps=7.1 q=9.0 size=     182kB time=00:00:22.50 bitrate=  66.3kbits/s dup=0 drop=45    
frame=  167 fps=7.2 q=9.0 size=     182kB time=00:00:23.10 bitrate=  64.6kbits/s dup=0 drop=49    
frame=  171 fps=7.2 q=9.0 size=     182kB time=00:00:23.50 bitrate=  63.6kbits/s dup=0 drop=50    
frame=  173 fps=7.1 q=9.0 size=     187kB time=00:00:23.80 bitrate=  64.4kbits/s dup=0 drop=50    
frame=  176 fps=7.1 q=9.0 size=     190kB time=00:00:24.10 bitrate=  64.7kbits/s dup=0 drop=50    
frame=  181 fps=7.1 q=9.0 size=     195kB time=00:00:25.30 bitrate=  63.2kbits/s dup=0 drop=50    
frame=  185 fps=7.1 q=8.0 size=     196kB time=00:00:25.70 bitrate=  62.3kbits/s dup=0 drop=50    
frame=  189 fps=7.1 q=9.0 size=     197kB time=00:00:26.30 bitrate=  61.2kbits/s dup=0 drop=50    
frame=  192 fps=7.0 q=7.0 size=     197kB time=00:00:26.70 bitrate=  60.4kbits/s dup=0 drop=50    
--40000LOG 11:52:06:688448100 Trapped SIGTERM or SIGINT so shutting down ffmpeg gracefully...
--40000LOG 11:52:06:742036600 Will kill VID_TOOL_PID=881 ...
frame=  194 fps=6.8 q=-1.0 Lsize=     197kB time=00:00:27.80 bitrate=  58.2kbits/s dup=0 drop=50    
video:195kB audio:0kB subtitle:0kB other streams:0kB global headers:0kB muxing overhead: 1.028388%
[libx264 @ 0x1831160] frame I:1     Avg QP:20.00  size: 28691
[libx264 @ 0x1831160] frame P:193   Avg QP: 8.81  size:   885
[libx264 @ 0x1831160] mb I  I16..4: 100.0%  0.0%  0.0%
[libx264 @ 0x1831160] mb P  I16..4:  1.5%  0.0%  0.0%  P16..4:  0.4%  0.0%  0.0%  0.0%  0.0%    skip:98.2%
[libx264 @ 0x1831160] coded y,uvDC,uvAC intra: 4.5% 3.9% 3.7% inter: 0.1% 0.2% 0.1%
[libx264 @ 0x1831160] i16 v,h,dc,p: 87% 12%  1%  0%
[libx264 @ 0x1831160] i8c dc,h,v,p: 92%  7%  1%  0%
[libx264 @ 0x1831160] kb/s:57.42
Exiting normally, received signal 2.
--40000LOG 11:52:07:836436400 Tried to kill -SIGTERM VID_TOOL_PID=881
--40000LOG 11:52:07:861369600 Waiting up to 6s for VID_TOOL_PID=881 to end with SIGTERM...
--40000LOG 11:52:08:068876100 wait_pid successfully managed to SIGTERM:VID_TOOL_PID=881 within less than 6s
--40000LOG 11:52:08:139949000 Will try to fix the videos...
--40000LOG 11:52:08:749867800 Fixing perms for /home/seluser/videos/vid_chrome_or_firefox_40000.mkv*
--40000LOG 11:52:08:824538200 Changing video encoding from mkv to mp4...
--40000LOG 11:52:29:278670400 Conversion from mkv to mp4 FAILED! in within the 20s
--40000LOG 11:52:29:457470000 Optimizing /home/seluser/videos/vid_chrome_or_firefox_40000.mp4 for HTTP streaming...
Error opening file /home/seluser/videos/vid_chrome_or_firefox_40000.mp4: Invalid IsoMedia File
--40000LOG 11:52:29:808890800 MP4Box got errors meaning the mp4 video file is corrupted, trying again...
Error opening file /home/seluser/videos/vid_chrome_or_firefox_40000.mp4: Invalid IsoMedia File
--40000LOG 11:52:30:991594100 MP4Box got errors meaning the mp4 video file is corrupted, trying again...
Error opening file /home/seluser/videos/vid_chrome_or_firefox_40000.mp4: Invalid IsoMedia File
--40000LOG 11:52:32:177009200 MP4Box got errors meaning the mp4 video file is corrupted, trying again...
Error opening file /home/seluser/videos/vid_chrome_or_firefox_40000.mp4: Invalid IsoMedia File
--40000LOG 11:52:33:358642700 MP4Box got errors meaning the mp4 video file is corrupted, trying again...
Error opening file /home/seluser/videos/vid_chrome_or_firefox_40000.mp4: Invalid IsoMedia File
--40000LOG 11:52:34:498441600 MP4Box got errors meaning the mp4 video file is corrupted, trying again...
Error opening file /home/seluser/videos/vid_chrome_or_firefox_40000.mp4: Invalid IsoMedia File
--40000LOG 11:52:35:684368200 MP4Box got errors meaning the mp4 video file is corrupted, trying again...
Error opening file /home/seluser/videos/vid_chrome_or_firefox_40000.mp4: Invalid IsoMedia File
--40000LOG 11:52:36:900360400 MP4Box got errors meaning the mp4 video file is corrupted, trying again...
--40000LOG 11:52:37:544576000 Failed! to mp4box_retry.sh within 8s
--40000LOG 11:52:37:609929100 ffmpeg shutdown complete.
